<svg width="826" height="189" version="1.1" xmlns="http://www.w3.org/2000/svg" desc="Created with imagetracer.js version 1.2.6" ><path fill="rgb(0,0,0)" stroke="rgb(0,0,0)" stroke-width="1" opacity="0" d="M 0 0 L 825.5 0 L 826 0.5 L 826 189 L 0.5 189 L 0 188.5 L 0 0 Z M 439 6 L 439 8 L 434 12 L 423 17 Q 417 21 415 31 L 416 41 L 423 35 L 434 30 L 439 23 L 441 15 L 441 7 L 439 6 Z M 16 49 L 16 52 L 22 59 L 25 69 L 25 137 L 22 147 L 15 155 L 17 156 L 56 156 L 49 147 L 46 137 L 46 69 Q 48 56 56 51 L 56 49 L 16 49 Z M 70 49 L 70 51 L 81 58 Q 88 65 92 75 L 97 94 L 97 112 L 94 126 Q 90 137 83 145 L 72 153 L 70 156 L 82 156 L 90 154 L 106 145 L 117 131 L 122 114 Q 125 81 111 66 Q 104 58 95 53 L 81 49 L 70 49 Z M 370 49 L 378 63 L 379 68 L 379 123 L 382 135 L 385 140 Q 394 152 412 156 L 421 156 L 421 154 L 415 151 Q 407 146 404 137 L 402 129 L 402 115 L 401 114 L 401 80 L 402 79 L 402 67 Q 404 57 410 52 L 410 49 L 370 49 Z M 446 49 L 452 59 L 455 70 L 455 124 L 451 141 L 446 148 L 436 154 L 437 156 L 449 155 L 465 147 Q 472 141 476 131 L 477 126 L 477 71 L 479 62 L 486 51 L 486 49 L 446 49 Z M 134 64 L 134 67 L 141 76 L 143 83 L 143 138 Q 141 148 134 154 L 135 156 L 174 156 L 166 144 L 164 136 L 164 85 Q 166 72 174 66 L 174 64 L 134 64 Z M 188 64 L 188 66 L 196 71 Q 203 77 206 88 L 206 97 L 201 107 Q 193 116 180 119 L 188 130 L 194 141 Q 200 148 210 152 L 227 156 L 244 156 L 244 154 L 236 151 L 221 133 Q 215 123 202 121 L 212 118 L 220 114 Q 228 109 230 98 L 230 88 L 227 79 Q 216 63 188 64 Z M 491 64 L 491 66 Q 500 67 506 73 L 519 90 L 561 156 L 566 145 Q 568 130 564 122 L 559 111 L 544 88 L 540 79 Q 539 72 542 70 L 551 66 L 551 64 L 491 64 Z M 571 64 L 571 66 L 584 71 Q 591 78 595 88 L 600 77 Q 606 68 617 66 L 617 64 L 571 64 Z M 624 64 L 624 67 L 630 74 L 633 84 L 633 137 L 630 147 L 623 155 L 625 156 L 664 156 L 655 142 Q 656 137 654 136 L 654 85 Q 656 72 664 66 L 664 64 L 624 64 Z M 675 64 L 675 66 L 680 67 L 690 73 L 697 86 Q 696 89 699 88 L 699 64 L 675 64 Z M 710 64 L 718 78 L 719 93 L 720 94 L 720 127 L 719 128 L 719 139 Q 717 149 710 155 L 711 156 L 750 156 L 742 144 L 740 134 L 740 87 L 743 75 L 750 66 L 750 64 L 710 64 Z M 764 64 L 764 66 L 770 69 Q 778 76 782 87 Q 784 100 778 106 L 769 114 L 757 120 L 757 122 L 762 127 L 771 142 Q 776 149 786 152 L 803 156 L 820 156 L 820 154 L 811 150 L 799 135 Q 792 124 778 121 L 791 117 L 799 112 Q 804 107 806 99 Q 808 83 801 76 L 795 70 L 782 65 L 764 64 Z M 684 97 Q 676 107 661 109 L 679 116 L 685 121 L 685 98 L 684 97 Z M 697 132 L 697 135 L 691 146 Q 685 152 675 154 L 676 156 L 699 156 L 699 133 L 697 132 Z M 257 138 L 255 139 L 250 145 L 251 154 L 257 158 L 265 157 L 269 152 L 268 143 Q 266 137 257 138 Z " /><path fill="rgb(21,86,157)" stroke="rgb(21,86,157)" stroke-width="1" opacity="0.9725490196078431" d="M 439.5 8 L 440 15.5 Q 438.5 24.5 432.5 29 Q 422.1 32.1 415.5 39 L 415 37.5 L 417 26.5 L 421 19 L 433.5 13 L 439.5 8 Z " /><path fill="rgb(21,86,157)" stroke="rgb(21,86,157)" stroke-width="1" opacity="0.9725490196078431" d="M 17 49 L 53.5 49 L 54 50.5 L 47 60.5 L 45 70.5 L 45 133.5 L 47 143.5 L 54 154.5 L 17.5 155 L 18 153.5 L 23 146.5 L 26 134.5 L 26 70.5 L 24 60.5 L 17 49 Z " /><path fill="rgb(21,86,157)" stroke="rgb(21,86,157)" stroke-width="1" opacity="0.9725490196078431" d="M 372 49 L 408.5 49 L 409 50.5 L 403 59.5 L 401 67.5 L 401 126.5 Q 403.2 127.7 402 132.5 L 407 144.5 L 415.5 153 L 419 154.5 L 415.5 155 L 403.5 152 L 388 141.5 Q 382.1 134.9 380 124.5 L 380 68.5 L 378 59.5 L 372 49 Z " /><path fill="rgb(21,86,157)" stroke="rgb(21,86,157)" stroke-width="1" opacity="0.9725490196078431" d="M 447.5 49 L 485 49.5 Q 479 55.5 477 65.5 L 477 76.5 L 476 77.5 L 476 126.5 Q 472.7 139.2 463.5 146 Q 454 153.5 438.5 155 L 439.5 153 L 449 145.5 L 454 134.5 L 455 120.5 L 456 119.5 L 456 73.5 L 455 72.5 L 454 60.5 L 447.5 49 Z " /><path fill="rgb(21,86,157)" stroke="rgb(21,86,157)" stroke-width="1" opacity="0.9725490196078431" d="M 73.5 50 L 81.5 50 L 94.5 54 Q 105.7 59.8 113 69.5 L 117 76.5 L 121 89.5 L 122 107.5 L 118 125.5 Q 113.4 136.9 104.5 144 Q 93.2 154.2 72.5 155 L 73.5 153 L 85 143.5 Q 92.7 134.7 96 121.5 L 97 109.5 L 98 108.5 L 98 95.5 L 94 76.5 Q 89.5 65 81.5 57 Q 74.8 54.2 73.5 50 Z " /><path fill="rgb(21,86,157)" stroke="rgb(21,86,157)" stroke-width="1" opacity="0.9725490196078431" d="M 135.5 65 L 172 65.5 Q 166 70.5 164 79.5 Q 165.8 85.8 163 87.5 L 163 132.5 L 165 143.5 L 172 155 L 135 154.5 L 142 144.5 L 144 135.5 L 144 84.5 L 142 75.5 L 135.5 65 Z " /><path fill="rgb(21,86,157)" stroke="rgb(21,86,157)" stroke-width="1" opacity="0.9725490196078431" d="M 190.5 65 Q 214.5 64.5 225 77.5 Q 230.8 84.2 229 98.5 Q 226.3 108.2 218.5 113 Q 209.2 118.7 195 119.5 L 202.5 121 L 211.5 125 L 224 137.5 Q 228.3 146.3 235.5 152 L 241 154.5 L 232.5 155 L 231.5 154 L 218.5 153 L 208.5 150 Q 199.5 146 194 138.5 L 182 119 Q 195.4 115.9 203 105.5 L 207 95.5 L 207 88.5 Q 204.3 75.7 195.5 69 L 190.5 66 L 190.5 65 Z " /><path fill="rgb(21,86,157)" stroke="rgb(21,86,157)" stroke-width="1" opacity="0.9725490196078431" d="M 495.5 65 L 547 65.5 L 540 71.5 L 541 83.5 L 562 118.5 L 565 127.5 L 566 137.5 Q 563.5 139 565 144.5 L 560.5 154 L 521 90.5 L 506.5 72 L 495.5 66 L 495.5 65 Z " /><path fill="rgb(21,86,157)" stroke="rgb(21,86,157)" stroke-width="1" opacity="0.9725490196078431" d="M 576.5 65 L 613 65.5 Q 604.8 68.3 600 74.5 L 594.5 86 L 589 74.5 L 584.5 70 L 576.5 66 L 576.5 65 Z " /><path fill="rgb(21,86,157)" stroke="rgb(21,86,157)" stroke-width="1" opacity="0.9725490196078431" d="M 625.5 65 L 662 65.5 L 656 73.5 L 653 86.5 L 653 133.5 L 655 143.5 L 662 155 L 625 154.5 L 631 146.5 L 634 134.5 L 634 84.5 L 632 75.5 L 625.5 65 Z " /><path fill="rgb(21,86,157)" stroke="rgb(21,86,157)" stroke-width="1" opacity="0.9725490196078431" d="M 679.5 65 L 698 65 L 698 84.5 L 697 84.5 Q 694.3 74.3 686.5 69 L 679.5 66 L 679.5 65 Z " /><path fill="rgb(21,86,157)" stroke="rgb(21,86,157)" stroke-width="1" opacity="0.9725490196078431" d="M 711.5 65 L 748 65.5 Q 742.2 71.2 740 80.5 L 740 138.5 Q 741.9 149.1 749 154.5 L 711.5 155 L 714 151.5 L 720 137.5 L 720 82.5 Q 717.9 70.6 711.5 65 Z " /><path fill="rgb(21,86,157)" stroke="rgb(21,86,157)" stroke-width="1" opacity="0.9725490196078431" d="M 767.5 65 Q 792.2 64.3 802 78.5 Q 807.1 85.4 805 99.5 Q 802.9 106.9 797.5 111 L 788.5 116 L 772 119.5 L 787.5 125 L 796 132.5 L 811.5 152 L 817 154.5 L 808.5 155 L 807.5 154 L 794.5 153 L 782.5 149 L 771 139.5 L 758 119 Q 772.3 115.6 780 104.5 Q 784.2 98.7 783 87.5 Q 779.7 74.8 770.5 68 L 767.5 65 Z " /><path fill="rgb(21,86,157)" stroke="rgb(21,86,157)" stroke-width="1" opacity="0.9725490196078431" d="M 683.5 99 L 684 118.5 L 679.5 115 L 665 108.5 Q 676.8 106.3 683.5 99 Z " /><path fill="rgb(21,86,157)" stroke="rgb(21,86,157)" stroke-width="1" opacity="0.9725490196078431" d="M 697.5 134 L 698 155 L 678 154.5 Q 687.9 151.9 693 144.5 L 697.5 134 Z " /><path fill="rgb(21,86,157)" stroke="rgb(21,86,157)" stroke-width="1" opacity="0.9725490196078431" d="M 256.5 139 Q 264.8 137.7 267 142.5 L 268 151.5 Q 266 158 255.5 156 Q 249.3 154.3 251 144.5 L 254.5 140 L 256.5 139 Z " /><path fill="rgb(244,246,249)" stroke="rgb(244,246,249)" stroke-width="1" opacity="0.16862745098039217" d="M 439 6 L 441 6.5 L 441 14.5 L 440 14.5 L 439.5 8 L 433.5 13 L 421 19 L 416.5 29 L 416 26.5 L 422.5 17 L 433.5 12 L 439 7.5 L 439 6 Z " /><path fill="rgb(244,246,249)" stroke="rgb(244,246,249)" stroke-width="1" opacity="0.16862745098039217" d="M 439.5 16 L 440 19.5 L 433.5 30 L 422.5 35 L 415.5 41 L 415 39.5 L 436 25.5 L 439.5 16 Z " /><path fill="rgb(244,246,249)" stroke="rgb(244,246,249)" stroke-width="1" opacity="0.16862745098039217" d="M 415.5 30 L 416 36.5 L 415 36.5 L 415.5 30 Z " /><path fill="rgb(244,246,249)" stroke="rgb(244,246,249)" stroke-width="1" opacity="0.16862745098039217" d="M 15.5 49 Q 17.8 48.3 17 50.5 Q 24.6 55.4 25 67.5 L 24 67.5 L 23 60.5 L 16 51.5 L 15.5 49 Z " /><path fill="rgb(244,246,249)" stroke="rgb(244,246,249)" stroke-width="1" opacity="0.16862745098039217" d="M 54 49 Q 56.7 47.9 56 50.5 Q 49.8 54.8 47.5 63 L 47 60.5 L 54 49 Z " /><path fill="rgb(244,246,249)" stroke="rgb(244,246,249)" stroke-width="1" opacity="0.16862745098039217" d="M 70 49 L 81 49.5 L 73 50.5 L 83 58.5 L 94 76.5 L 96 85.5 L 95 85.5 Q 91.6 67.9 80.5 58 L 70 50.5 L 70 49 Z " /><path fill="rgb(244,246,249)" stroke="rgb(244,246,249)" stroke-width="1" opacity="0.16862745098039217" d="M 370 49 Q 372.7 47.9 372 50.5 Q 376.7 54.3 378 61.5 L 377 61.5 L 370 49 Z " /><path fill="rgb(244,246,249)" stroke="rgb(244,246,249)" stroke-width="1" opacity="0.16862745098039217" d="M 409.5 49 L 410 51.5 Q 403.8 56.3 402.5 66 L 402 62.5 L 409.5 49 Z " /><path fill="rgb(244,246,249)" stroke="rgb(244,246,249)" stroke-width="1" opacity="0.16862745098039217" d="M 446.5 49 L 454 60.5 L 455 68.5 L 454 68.5 L 452 58.5 L 446 50.5 L 446.5 49 Z " /><path fill="rgb(244,246,249)" stroke="rgb(244,246,249)" stroke-width="1" opacity="0.16862745098039217" d="M 485.5 49 L 486 50.5 Q 480.6 55.6 478.5 64 L 478 61.5 L 485.5 49 Z " /><path fill="rgb(244,246,249)" stroke="rgb(244,246,249)" stroke-width="1" opacity="0.16862745098039217" d="M 82.5 50 L 89 51.5 L 86.5 52 L 82.5 51 L 82.5 50 Z " /><path fill="rgb(244,246,249)" stroke="rgb(244,246,249)" stroke-width="1" opacity="0.16862745098039217" d="M 90.5 52 Q 103.5 56 111 65.5 L 117 75.5 L 116 75.5 Q 111.8 64.8 102.5 59 L 90.5 53 L 90.5 52 Z " /><path fill="rgb(244,246,249)" stroke="rgb(244,246,249)" stroke-width="1" opacity="0.16862745098039217" d="M 378.5 63 L 379 66.5 L 378 66.5 L 378.5 63 Z " /><path fill="rgb(244,246,249)" stroke="rgb(244,246,249)" stroke-width="1" opacity="0.16862745098039217" d="M 46.5 64 L 47 67.5 L 46 67.5 L 46.5 64 Z " /><path fill="rgb(244,246,249)" stroke="rgb(244,246,249)" stroke-width="1" opacity="0.16862745098039217" d="M 134 64 L 173.5 64 L 174 65.5 Q 166.1 71.6 164.5 84 L 164 79.5 Q 166 70.5 172 65.5 L 135.5 65 L 138 68.5 Q 142.5 73 143 81.5 L 142 81.5 L 141 75.5 L 134 66.5 L 134 64 Z " /><path fill="rgb(244,246,249)" stroke="rgb(244,246,249)" stroke-width="1" opacity="0.16862745098039217" d="M 188 64 L 200 64.5 L 190 65.5 L 199 72.5 Q 204.5 77.5 206 86.5 L 205 86.5 Q 202.6 76.4 195.5 71 L 188 65.5 L 188 64 Z " /><path fill="rgb(244,246,249)" stroke="rgb(244,246,249)" stroke-width="1" opacity="0.16862745098039217" d="M 491 64 L 550.5 64 L 551 66 L 542 70 L 540.5 74 L 540 71.5 L 547 65.5 L 495.5 65 L 495.5 66 Q 505.4 69.1 511 76.5 L 560.5 154 Q 565.6 148.6 565.5 138 L 566 144.5 L 560.5 156 L 519 89.5 L 505.5 73 Q 499.6 67.2 491 66 L 491 64 Z " /><path fill="rgb(244,246,249)" stroke="rgb(244,246,249)" stroke-width="1" opacity="0.16862745098039217" d="M 571 64 L 616.5 64 L 617 66 Q 606 68.2 600 76.5 L 594.5 88 Q 591 77.5 583.5 71 L 571 66 L 571 64 Z M 577 65 L 577 66 L 585 70 L 589 75 L 595 86 L 600 75 Q 605 68 613 66 L 577 65 Z " /><path fill="rgb(244,246,249)" stroke="rgb(244,246,249)" stroke-width="1" opacity="0.16862745098039217" d="M 623.5 64 L 663.5 64 L 664 65.5 Q 656.1 71.6 654.5 84 L 654 79.5 Q 656 70.5 662 65.5 L 625.5 65 L 628 68.5 Q 632.8 73.2 633 82.5 L 632 82.5 L 631 75.5 L 624 66.5 L 623.5 64 Z " /><path fill="rgb(244,246,249)" stroke="rgb(244,246,249)" stroke-width="1" opacity="0.16862745098039217" d="M 675 64 L 699 64 L 699 88 Q 696 89.3 697 85.5 L 690 73 L 679.5 67 L 675 66 L 675 64 Z M 680 65 L 680 66 L 687 69 Q 694 74 697 85 L 698 85 L 698 65 L 680 65 Z " /><path fill="rgb(244,246,249)" stroke="rgb(244,246,249)" stroke-width="1" opacity="0.16862745098039217" d="M 710 64 L 749.5 64 L 750 65.5 Q 741.4 71.9 740.5 86 L 740 80.5 Q 742.2 71.2 748 65.5 L 711.5 65 L 715 69.5 Q 718.7 73.3 719 80.5 L 718 80.5 L 718 77.5 L 710 64 Z " /><path fill="rgb(244,246,249)" stroke="rgb(244,246,249)" stroke-width="1" opacity="0.16862745098039217" d="M 764 64 L 776 64.5 L 767 65.5 L 776 73.5 L 782 85.5 L 781 85.5 Q 777.6 74.9 769.5 69 L 764 65.5 L 764 64 Z " /><path fill="rgb(244,246,249)" stroke="rgb(244,246,249)" stroke-width="1" opacity="0.16862745098039217" d="M 201.5 65 L 205 65.5 L 201.5 66 L 201.5 65 Z " /><path fill="rgb(244,246,249)" stroke="rgb(244,246,249)" stroke-width="1" opacity="0.16862745098039217" d="M 477.5 65 L 478 69.5 L 477 69.5 L 477.5 65 Z " /><path fill="rgb(244,246,249)" stroke="rgb(244,246,249)" stroke-width="1" opacity="0.16862745098039217" d="M 777.5 65 L 785 66.5 L 782.5 67 L 777.5 66 L 777.5 65 Z " /><path fill="rgb(244,246,249)" stroke="rgb(244,246,249)" stroke-width="1" opacity="0.16862745098039217" d="M 206.5 66 Q 220.8 68.2 227 78.5 L 229 85.5 L 228 85.5 L 227 80.5 L 219.5 72 L 206.5 67 L 206.5 66 Z " /><path fill="rgb(244,246,249)" stroke="rgb(244,246,249)" stroke-width="1" opacity="0.16862745098039217" d="M 401.5 67 L 402 78.5 L 401 78.5 L 401.5 67 Z " /><path fill="rgb(244,246,249)" stroke="rgb(244,246,249)" stroke-width="1" opacity="0.16862745098039217" d="M 786.5 67 Q 795.9 69.1 801 75.5 L 805 84.5 L 804 84.5 Q 802.4 75.6 795.5 72 L 786.5 68 L 786.5 67 Z " /><path fill="rgb(244,246,249)" stroke="rgb(244,246,249)" stroke-width="1" opacity="0.16862745098039217" d="M 379.5 68 L 380 122.5 L 379 122.5 L 379.5 68 Z " /><path fill="rgb(244,246,249)" stroke="rgb(244,246,249)" stroke-width="1" opacity="0.16862745098039217" d="M 25.5 70 L 26 134.5 L 25 134.5 L 25.5 70 Z " /><path fill="rgb(244,246,249)" stroke="rgb(244,246,249)" stroke-width="1" opacity="0.16862745098039217" d="M 45.5 70 L 46 133.5 L 45 133.5 L 45.5 70 Z " /><path fill="rgb(244,246,249)" stroke="rgb(244,246,249)" stroke-width="1" opacity="0.16862745098039217" d="M 455.5 73 L 456 119.5 L 455 119.5 L 455.5 73 Z " /><path fill="rgb(244,246,249)" stroke="rgb(244,246,249)" stroke-width="1" opacity="0.16862745098039217" d="M 117.5 77 L 120 84.5 L 119 84.5 L 117.5 77 Z " /><path fill="rgb(244,246,249)" stroke="rgb(244,246,249)" stroke-width="1" opacity="0.16862745098039217" d="M 476.5 77 L 477 125.5 L 476 125.5 L 476.5 77 Z " /><path fill="rgb(244,246,249)" stroke="rgb(244,246,249)" stroke-width="1" opacity="0.16862745098039217" d="M 541.5 82 L 562 117.5 L 561 117.5 L 558 110.5 L 543 87.5 L 541.5 82 Z " /><path fill="rgb(244,246,249)" stroke="rgb(244,246,249)" stroke-width="1" opacity="0.16862745098039217" d="M 719.5 82 L 720 92.5 L 719 92.5 L 719.5 82 Z " /><path fill="rgb(244,246,249)" stroke="rgb(244,246,249)" stroke-width="1" opacity="0.16862745098039217" d="M 143.5 84 L 144 135.5 L 143 135.5 L 143.5 84 Z " /><path fill="rgb(244,246,249)" stroke="rgb(244,246,249)" stroke-width="1" opacity="0.16862745098039217" d="M 633.5 84 L 634 134.5 L 633 134.5 L 633.5 84 Z " /><path fill="rgb(244,246,249)" stroke="rgb(244,246,249)" stroke-width="1" opacity="0.16862745098039217" d="M 120.5 86 L 121 88.5 L 120 88.5 L 120.5 86 Z " /><path fill="rgb(244,246,249)" stroke="rgb(244,246,249)" stroke-width="1" opacity="0.16862745098039217" d="M 653.5 86 L 654 133.5 L 653 133.5 L 653.5 86 Z " /><path fill="rgb(244,246,249)" stroke="rgb(244,246,249)" stroke-width="1" opacity="0.16862745098039217" d="M 805.5 86 L 806 98.5 L 805 98.5 L 805.5 86 Z " /><path fill="rgb(244,246,249)" stroke="rgb(244,246,249)" stroke-width="1" opacity="0.16862745098039217" d="M 163.5 87 L 164 132.5 L 163 132.5 L 163.5 87 Z " /><path fill="rgb(244,246,249)" stroke="rgb(244,246,249)" stroke-width="1" opacity="0.16862745098039217" d="M 229.5 87 L 230 97.5 L 229 97.5 L 229.5 87 Z " /><path fill="rgb(244,246,249)" stroke="rgb(244,246,249)" stroke-width="1" opacity="0.16862745098039217" d="M 782.5 87 L 783 96.5 L 782 96.5 L 782.5 87 Z " /><path fill="rgb(244,246,249)" stroke="rgb(244,246,249)" stroke-width="1" opacity="0.16862745098039217" d="M 96.5 88 L 97 92.5 L 96 92.5 L 96.5 88 Z " /><path fill="rgb(244,246,249)" stroke="rgb(244,246,249)" stroke-width="1" opacity="0.16862745098039217" d="M 206.5 88 L 207 95.5 L 206 95.5 L 206.5 88 Z " /><path fill="rgb(244,246,249)" stroke="rgb(244,246,249)" stroke-width="1" opacity="0.16862745098039217" d="M 121.5 91 L 122 96.5 L 121 96.5 L 121.5 91 Z " /><path fill="rgb(244,246,249)" stroke="rgb(244,246,249)" stroke-width="1" opacity="0.16862745098039217" d="M 97.5 95 L 98 108.5 L 97 108.5 L 97.5 95 Z " /><path fill="rgb(244,246,249)" stroke="rgb(244,246,249)" stroke-width="1" opacity="0.16862745098039217" d="M 205.5 97 L 206 99.5 Q 203.1 107.6 196.5 112 L 186.5 118 L 182 119 L 194 138.5 L 201.5 146 Q 208.4 151.1 218.5 153 L 240.5 155 L 240.5 154 Q 232.6 151.9 229 145.5 Q 222.4 133.1 211.5 125 L 203 121.5 L 205.5 121 Q 215.1 124.9 221 132.5 L 235.5 151 L 244 154 L 243.5 156 L 226.5 156 L 209.5 152 Q 199.8 148.2 194 140.5 L 188 129.5 L 180 119 Q 193 115.8 201 106.5 L 205.5 97 Z " /><path fill="rgb(244,246,249)" stroke="rgb(244,246,249)" stroke-width="1" opacity="0.16862745098039217" d="M 683.5 97 L 685 97.5 L 685 121 L 678.5 116 L 661 108.5 L 667.5 107 L 667.5 108 L 665 108.5 Q 676.9 111.1 683.5 119 L 684 99.5 L 681.5 101 L 669.5 107 L 669.5 106 Q 678.7 103.7 683.5 97 Z " /><path fill="rgb(244,246,249)" stroke="rgb(244,246,249)" stroke-width="1" opacity="0.16862745098039217" d="M 781.5 98 L 782 100.5 Q 778.7 108.7 771.5 113 L 760.5 119 L 758 119 L 771 139.5 L 776.5 145 L 790.5 152 L 799.5 154 L 816.5 155 L 816.5 154 Q 809.3 152.2 806 146.5 Q 800.2 135.8 791.5 128 L 779 121.5 L 781.5 121 Q 792.5 125.5 799 134.5 L 810.5 150 L 820 154 L 819.5 156 L 802.5 156 L 785.5 152 Q 776.5 148.5 771 141.5 L 762 126.5 L 757 121.5 L 757 119.5 L 768.5 114 L 778 105.5 L 781.5 98 Z " /><path fill="rgb(244,246,249)" stroke="rgb(244,246,249)" stroke-width="1" opacity="0.16862745098039217" d="M 228.5 99 L 229 101.5 Q 226.6 110.1 219.5 114 L 211.5 118 L 198.5 121 L 195 119.5 L 212.5 116 Q 221.3 112.8 226 105.5 L 228.5 99 Z " /><path fill="rgb(244,246,249)" stroke="rgb(244,246,249)" stroke-width="1" opacity="0.16862745098039217" d="M 804.5 100 L 805 102.5 L 798.5 112 L 790.5 117 L 774.5 121 L 772 119.5 L 788.5 116 L 801 107.5 L 804.5 100 Z " /><path fill="rgb(244,246,249)" stroke="rgb(244,246,249)" stroke-width="1" opacity="0.16862745098039217" d="M 121.5 108 L 122 113.5 L 121 113.5 L 121.5 108 Z " /><path fill="rgb(244,246,249)" stroke="rgb(244,246,249)" stroke-width="1" opacity="0.16862745098039217" d="M 96.5 112 L 97 116.5 L 96 116.5 L 96.5 112 Z " /><path fill="rgb(244,246,249)" stroke="rgb(244,246,249)" stroke-width="1" opacity="0.16862745098039217" d="M 401.5 114 L 402 126.5 L 401 126.5 L 401.5 114 Z " /><path fill="rgb(244,246,249)" stroke="rgb(244,246,249)" stroke-width="1" opacity="0.16862745098039217" d="M 120.5 116 L 121 118.5 L 120 118.5 L 120.5 116 Z " /><path fill="rgb(244,246,249)" stroke="rgb(244,246,249)" stroke-width="1" opacity="0.16862745098039217" d="M 95.5 118 L 96 121.5 L 94.5 125 L 94 122.5 L 95.5 118 Z " /><path fill="rgb(244,246,249)" stroke="rgb(244,246,249)" stroke-width="1" opacity="0.16862745098039217" d="M 562.5 119 L 565 126.5 L 564 126.5 L 562.5 119 Z " /><path fill="rgb(244,246,249)" stroke="rgb(244,246,249)" stroke-width="1" opacity="0.16862745098039217" d="M 119.5 120 L 120 122.5 Q 115.6 136.6 105.5 145 L 89.5 154 L 81.5 156 L 70 156 L 71.5 153 L 83 144.5 L 91.5 131 L 92 132.5 Q 87 143 78.5 150 L 72 154.5 L 76.5 155 L 90.5 152 L 100.5 147 L 111 137.5 Q 117.3 130.8 119.5 120 Z " /><path fill="rgb(244,246,249)" stroke="rgb(244,246,249)" stroke-width="1" opacity="0.16862745098039217" d="M 454.5 124 L 455 129.5 L 454 129.5 L 454.5 124 Z " /><path fill="rgb(244,246,249)" stroke="rgb(244,246,249)" stroke-width="1" opacity="0.16862745098039217" d="M 380.5 125 Q 382.7 137.3 390.5 144 Q 400.3 153.7 418.5 155 L 418.5 154 L 415.5 153 L 407 144.5 L 404 137.5 L 405 137.5 Q 407.4 146.5 414.5 151 L 421 154 L 420.5 156 L 411.5 156 Q 393.8 152.2 385 139.5 L 380 128.5 L 380.5 125 Z " /><path fill="rgb(244,246,249)" stroke="rgb(244,246,249)" stroke-width="1" opacity="0.16862745098039217" d="M 93.5 126 L 94 127.5 L 92.5 130 L 92 128.5 L 93.5 126 Z " /><path fill="rgb(244,246,249)" stroke="rgb(244,246,249)" stroke-width="1" opacity="0.16862745098039217" d="M 475.5 127 L 476 130.5 Q 472.3 140.8 464.5 147 L 448.5 155 L 436.5 156 L 435.5 154 L 446 147.5 L 450.5 141 L 450 142.5 Q 448.6 148.6 443.5 151 L 438 154.5 L 441.5 155 Q 460.2 151.7 470 139.5 L 475 130.5 L 475.5 127 Z " /><path fill="rgb(244,246,249)" stroke="rgb(244,246,249)" stroke-width="1" opacity="0.16862745098039217" d="M 719.5 127 L 720 137.5 L 719 137.5 L 719.5 127 Z " /><path fill="rgb(244,246,249)" stroke="rgb(244,246,249)" stroke-width="1" opacity="0.16862745098039217" d="M 565.5 128 L 566 134.5 L 565 134.5 L 565.5 128 Z " /><path fill="rgb(244,246,249)" stroke="rgb(244,246,249)" stroke-width="1" opacity="0.16862745098039217" d="M 402.5 129 L 403 132.5 L 402 132.5 L 402.5 129 Z " /><path fill="rgb(244,246,249)" stroke="rgb(244,246,249)" stroke-width="1" opacity="0.16862745098039217" d="M 453.5 131 L 454 134.5 L 451.5 140 L 451 138.5 L 453.5 131 Z " /><path fill="rgb(244,246,249)" stroke="rgb(244,246,249)" stroke-width="1" opacity="0.16862745098039217" d="M 697 132 L 699 132.5 L 699 156 L 675.5 156 L 675 154 Q 684.9 152 691 145.5 L 696.5 135 L 697 136.5 Q 694.2 145.2 687.5 150 L 678 154.5 L 698 155 L 698 134.5 L 697 132 Z " /><path fill="rgb(244,246,249)" stroke="rgb(244,246,249)" stroke-width="1" opacity="0.16862745098039217" d="M 740.5 134 L 741 138.5 L 740 138.5 L 740.5 134 Z " /><path fill="rgb(244,246,249)" stroke="rgb(244,246,249)" stroke-width="1" opacity="0.16862745098039217" d="M 164.5 136 L 166 143.5 L 174 156 L 134.5 156 L 134 153.5 Q 139.8 149.8 141.5 142 L 142 144.5 L 135 154.5 L 172 155 L 165 143.5 L 164.5 136 Z " /><path fill="rgb(244,246,249)" stroke="rgb(244,246,249)" stroke-width="1" opacity="0.16862745098039217" d="M 654.5 136 L 655 140.5 L 654 140.5 L 654.5 136 Z " /><path fill="rgb(244,246,249)" stroke="rgb(244,246,249)" stroke-width="1" opacity="0.16862745098039217" d="M 24.5 137 L 25 140.5 L 24 140.5 L 24.5 137 Z " /><path fill="rgb(244,246,249)" stroke="rgb(244,246,249)" stroke-width="1" opacity="0.16862745098039217" d="M 46.5 137 L 47 140.5 L 46 140.5 L 46.5 137 Z " /><path fill="rgb(244,246,249)" stroke="rgb(244,246,249)" stroke-width="1" opacity="0.16862745098039217" d="M 632.5 137 L 633 140.5 L 632 140.5 L 632.5 137 Z " /><path fill="rgb(244,246,249)" stroke="rgb(244,246,249)" stroke-width="1" opacity="0.16862745098039217" d="M 142.5 138 L 143 140.5 L 142 140.5 L 142.5 138 Z " /><path fill="rgb(244,246,249)" stroke="rgb(244,246,249)" stroke-width="1" opacity="0.16862745098039217" d="M 256.5 138 Q 265.9 136.7 268 142.5 L 269 151.5 L 264.5 157 L 256.5 158 L 251 153.5 L 250 144.5 L 254.5 139 L 256.5 138 Z M 257 139 L 255 140 L 251 145 Q 249 154 256 156 Q 266 158 268 152 L 267 143 Q 265 138 257 139 Z " /><path fill="rgb(244,246,249)" stroke="rgb(244,246,249)" stroke-width="1" opacity="0.16862745098039217" d="M 718.5 139 L 719 141.5 L 718 141.5 L 718.5 139 Z " /><path fill="rgb(244,246,249)" stroke="rgb(244,246,249)" stroke-width="1" opacity="0.16862745098039217" d="M 741.5 140 L 742 142.5 L 741 142.5 L 741.5 140 Z " /><path fill="rgb(244,246,249)" stroke="rgb(244,246,249)" stroke-width="1" opacity="0.16862745098039217" d="M 47.5 142 L 49 145.5 L 48 145.5 L 47.5 142 Z " /><path fill="rgb(244,246,249)" stroke="rgb(244,246,249)" stroke-width="1" opacity="0.16862745098039217" d="M 655.5 142 L 664 156 L 624.5 156 L 623 154.5 L 630.5 145 L 631 146.5 L 625 154.5 L 662 155 L 655 143.5 L 655.5 142 Z " /><path fill="rgb(244,246,249)" stroke="rgb(244,246,249)" stroke-width="1" opacity="0.16862745098039217" d="M 717.5 143 L 718 144.5 L 711 154.5 L 748.5 155 L 745 150.5 L 742 144.5 L 743 144.5 L 750 156 L 710.5 156 L 710 154.5 L 717.5 143 Z " /><path fill="rgb(244,246,249)" stroke="rgb(244,246,249)" stroke-width="1" opacity="0.16862745098039217" d="M 22.5 145 L 23 146.5 L 17 154.5 L 53.5 155 L 53 153.5 L 49 147.5 L 51 148.5 L 56 156 L 16.5 156 L 15 154.5 L 22.5 145 Z " /></svg>